PathFileType	4	(X/Y/Z)	C:\Git\research_data\Projects\torsion_deformities_healthy_kinematics\simulations\P01\pre\dynamic06_l\marker_experimental.trc
DataRate	CameraRate	NumFrames	NumMarkers	Units	OrigDataRate	OrigDataStartFrame	OrigNumFrames
200	200	4	34	mm	200	443	884
Frame#	Time	C7			T10			CLAV			STRN			RBAK			LASI			RASI			SACR			LT1			LT2			LT3			LS1			LS2			LS3			LHEE			LTOE			RT1			RT2			RT3			RS1			RS2			RS3			RHEE			RTOE			LKNE			LANK			RKNE			RANK			LAJC			LKJC			RAJC			RKJC			RHJC			LHJC		
		X1	Y1	Z1	X2	Y2	Z2	X3	Y3	Z3	X4	Y4	Z4	X5	Y5	Z5	X6	Y6	Z6	X7	Y7	Z7	X8	Y8	Z8	X9	Y9	Z9	X10	Y10	Z10	X11	Y11	Z11	X12	Y12	Z12	X13	Y13	Z13	X14	Y14	Z14	X15	Y15	Z15	X16	Y16	Z16	X17	Y17	Z17	X18	Y18	Z18	X19	Y19	Z19	X20	Y20	Z20	X21	Y21	Z21	X22	Y22	Z22	X23	Y23	Z23	X24	Y24	Z24	X25	Y25	Z25	X26	Y26	Z26	X27	Y27	Z27	X28	Y28	Z28	X29	Y29	Z29	X30	Y30	Z30	X31	Y31	Z31	X32	Y32	Z32	X33	Y33	Z33	X34	Y34	Z34	

443	2.210000	-164.577316	1037.707642	-421.476318	-190.150177	860.270752	-424.060211	-52.053703	999.486877	-400.474182	-4.638251	872.733765	-388.816986	-203.555313	982.722961	-336.882690	-47.370663	701.169617	-507.287598	-66.377777	701.213623	-296.048981	-205.637070	746.865417	-416.629028	-92.333282	504.571899	-544.328613	-162.951981	437.302643	-546.022827	-26.888401	404.078583	-510.660095	-142.044373	256.296570	-532.549316	-242.708130	196.122437	-569.574158	-116.672447	165.307251	-507.816467	-256.744232	52.110500	-497.637390	-118.346268	45.023731	-463.246063	-78.346069	538.833557	-249.574539	-108.088226	449.821991	-266.270905	26.631489	483.231293	-241.800781	-29.113930	297.157288	-260.356506	-135.013397	234.641556	-261.280579	5.187313	207.771576	-270.558533	-121.194633	77.925613	-335.163269	19.289925	57.538490	-321.751892	-129.023514	354.710724	-517.555481	-205.837173	42.899033	-514.859375	-11.462114	381.100067	-263.919800	-79.054222	67.434029	-299.451385	-210.962128	42.402519	-481.356445	-125.291397	347.319946	-466.741028	-72.933708	74.968040	-335.026184	1.131079	379.768738	-316.236908	-130.657629	643.786840	-330.692694	-116.804522	643.754767	-484.651434	
444	2.215000	-157.932892	1037.082275	-421.279724	-183.539368	859.630005	-423.359253	-45.474705	998.908386	-399.971161	2.096740	872.099426	-388.450897	-197.079254	982.255798	-337.170776	-41.837547	700.312622	-507.303986	-59.036903	700.269531	-295.498108	-199.131317	746.408081	-414.752472	-88.256325	503.787354	-543.507141	-159.666183	437.365479	-545.400513	-24.133673	402.326813	-509.800232	-140.786179	256.080627	-532.061157	-242.013306	196.650208	-568.889832	-115.919189	164.901093	-507.596588	-256.677399	52.441181	-497.279205	-118.293304	45.017353	-463.181000	-70.570366	538.047424	-248.870102	-100.512894	449.189178	-265.541473	34.499748	482.271515	-242.341110	-19.023272	296.636810	-259.880188	-122.551804	230.098663	-260.216736	18.584980	208.522751	-269.134583	-102.453171	73.142151	-331.891754	38.795826	58.540943	-319.625427	-126.822281	354.356476	-516.966187	-205.978226	43.086208	-514.615784	-3.869344	380.347748	-264.390717	-60.343643	64.821434	-296.615387	-210.995331	42.552231	-481.097168	-123.278214	346.866943	-466.152710	-54.476414	72.209663	-332.263367	8.198483	379.181824	-316.835419	-123.804398	642.940519	-329.689514	-111.271143	642.971919	-484.033493	
445	2.220000	-151.278152	1036.353271	-421.051636	-176.910873	858.882629	-422.614594	-38.871819	998.207703	-399.440063	8.849566	871.334351	-388.072937	-190.581329	981.677429	-337.408020	-36.308861	699.328552	-507.338501	-51.672253	699.212708	-294.966217	-192.618179	745.824097	-412.857574	-84.133354	502.951874	-542.653137	-156.290939	437.352753	-544.736267	-21.300272	400.597992	-508.861267	-139.501099	255.849686	-531.530884	-241.297256	197.193222	-568.144470	-115.156876	164.466827	-507.348389	-256.612671	52.794586	-496.866425	-118.247543	45.007225	-463.098694	-62.920269	537.040283	-248.235489	-93.123291	448.341461	-264.936035	42.208241	481.018341	-242.944702	-8.982748	296.152679	-259.445892	-109.954208	225.656067	-258.966278	31.895456	209.441513	-267.791382	-83.615265	68.701622	-328.469299	58.175522	59.896542	-317.426331	-124.499443	353.964203	-516.297913	-206.119568	43.276997	-514.332153	3.484092	379.341125	-264.985016	-41.572189	62.564606	-293.647614	-211.022537	42.702278	-480.797302	-121.151161	346.399689	-465.482269	-36.010201	69.784225	-329.378967	15.041697	378.358948	-317.548279	-116.928750	641.973005	-328.691374	-105.735474	642.057405	-483.419025	
446	2.225000	-144.613602	1035.524414	-420.788147	-170.263062	858.032288	-421.826569	-32.245789	997.389771	-398.877991	15.619469	870.445129	-387.678864	-184.062592	980.990112	-337.589050	-30.772808	698.220825	-507.379517	-44.282799	698.058105	-294.459656	-186.093826	745.121155	-410.955200	-79.975304	502.074432	-541.773254	-152.840210	437.275330	-544.025879	-18.387915	398.899963	-507.874481	-138.183655	255.609039	-530.961182	-240.545471	197.754105	-567.348877	-114.383057	164.008942	-507.068848	-256.548859	53.174694	-496.400238	-118.207565	44.993172	-463.000610	-55.391823	535.826050	-247.667908	-85.912315	447.287598	-264.446228	49.758862	479.492004	-243.604584	1.016750	295.720398	-259.050629	-97.214691	221.361954	-257.492737	45.113716	210.539536	-266.553223	-64.728493	64.629555	-324.926392	77.386887	61.614159	-315.166779	-122.060738	353.537994	-515.560852	-206.250610	43.475826	-514.009644	10.603437	378.095306	-265.688599	-22.773005	60.696125	-290.560242	-211.036957	42.858189	-480.458679	-118.903023	345.917572	-464.741364	-17.580261	67.720612	-326.385925	21.666821	377.312683	-318.361450	-110.026250	640.901447	-327.702272	-100.185130	641.019977	-482.800074	
